<svg xmlns="http://www.w3.org/2000/svg" viewBox="0 0 960 620" font-family="'Inter', 'Noto Sans SC', system-ui, sans-serif">
  <defs>
    <marker id="arrow" markerWidth="8" markerHeight="6" refX="8" refY="3" orient="auto">
      <path d="M0,0 L8,3 L0,6 Z" fill="#94a3b8"/>
    </marker>
    <linearGradient id="headerGrad" x1="0" y1="0" x2="1" y2="0">
      <stop offset="0%" stop-color="#1e293b"/>
      <stop offset="100%" stop-color="#334155"/>
    </linearGradient>
  </defs>

  <!-- Background -->
  <rect width="960" height="620" fill="#f8f9fa" rx="12"/>

  <!-- Title -->
  <text x="480" y="36" text-anchor="middle" font-size="18" font-weight="600" fill="#1a202c">江南出行智慧服务平台 — 系统架构</text>

  <!-- ====== CLIENT LAYER ====== -->
  <rect x="30" y="56" width="900" height="70" rx="8" fill="#ffffff" stroke="#e2e8f0" stroke-width="1.5"/>
  <rect x="30" y="56" width="900" height="26" rx="8" fill="url(#headerGrad)"/>
  <rect x="30" y="74" width="900" height="8" fill="url(#headerGrad)"/>
  <text x="480" y="74" text-anchor="middle" font-size="12" font-weight="600" fill="#f1f5f9">客户端层 (Client Layer)</text>

  <!-- Client boxes -->
  <rect x="60" y="92" width="160" height="26" rx="4" fill="#fef3c7" stroke="#d97706" stroke-width="1"/>
  <text x="140" y="109" text-anchor="middle" font-size="12" fill="#92400e">乘客端 (Vue 3)</text>

  <rect x="260" y="92" width="160" height="26" rx="4" fill="#fef3c7" stroke="#d97706" stroke-width="1"/>
  <text x="340" y="109" text-anchor="middle" font-size="12" fill="#92400e">司机端 (Vue 3)</text>

  <rect x="460" y="92" width="160" height="26" rx="4" fill="#fef3c7" stroke="#d97706" stroke-width="1"/>
  <text x="540" y="109" text-anchor="middle" font-size="12" fill="#92400e">管理后台 (Vue 3)</text>

  <rect x="660" y="92" width="130" height="26" rx="4" fill="#dbeafe" stroke="#2563eb" stroke-width="1"/>
  <text x="725" y="109" text-anchor="middle" font-size="12" fill="#1e40af">WebSocket 实时通信</text>

  <!-- Client -> API arrows -->
  <line x1="200" y1="126" x2="200" y2="152" stroke="#94a3b8" stroke-width="1.5" marker-end="url(#arrow)"/>
  <line x1="340" y1="126" x2="340" y2="152" stroke="#94a3b8" stroke-width="1.5" marker-end="url(#arrow)"/>
  <line x1="540" y1="126" x2="540" y2="152" stroke="#94a3b8" stroke-width="1.5" marker-end="url(#arrow)"/>

  <!-- HTTP / WebSocket labels -->
  <text x="220" y="144" font-size="10" fill="#94a3b8">HTTP/REST</text>
  <text x="580" y="144" font-size="10" fill="#94a3b8">HTTP/REST</text>

  <!-- ====== GATEWAY LAYER ====== -->
  <rect x="100" y="156" width="760" height="52" rx="8" fill="#ffffff" stroke="#e2e8f0" stroke-width="1.5"/>
  <rect x="100" y="156" width="760" height="22" rx="8" fill="#1e293b"/>
  <rect x="100" y="170" width="760" height="8" fill="#1e293b"/>
  <text x="480" y="171" text-anchor="middle" font-size="11" font-weight="600" fill="#f1f5f9">网关层 (Gateway Layer)</text>

  <rect x="130" y="186" width="150" height="16" rx="3" fill="#f1f5f9" stroke="#cbd5e1" stroke-width="0.5"/>
  <text x="205" y="197" text-anchor="middle" font-size="10" fill="#475569">JWT 认证过滤器</text>

  <rect x="310" y="186" width="150" height="16" rx="3" fill="#f1f5f9" stroke="#cbd5e1" stroke-width="0.5"/>
  <text x="385" y="197" text-anchor="middle" font-size="10" fill="#475569">速率限制 (Redis 滑动窗口)</text>

  <rect x="490" y="186" width="150" height="16" rx="3" fill="#f1f5f9" stroke="#cbd5e1" stroke-width="0.5"/>
  <text x="565" y="197" text-anchor="middle" font-size="10" fill="#475569">CORS / CSRF 防护</text>

  <rect x="670" y="186" width="160" height="16" rx="3" fill="#f1f5f9" stroke="#cbd5e1" stroke-width="0.5"/>
  <text x="750" y="197" text-anchor="middle" font-size="10" fill="#475569">TokenBlacklistService</text>

  <!-- Gateway -> Services arrow -->
  <line x1="480" y1="208" x2="480" y2="234" stroke="#94a3b8" stroke-width="1.5" marker-end="url(#arrow)"/>

  <!-- ====== BUSINESS LAYER ====== -->
  <rect x="30" y="238" width="900" height="130" rx="8" fill="#ffffff" stroke="#e2e8f0" stroke-width="1.5"/>
  <rect x="30" y="238" width="900" height="26" rx="8" fill="url(#headerGrad)"/>
  <rect x="30" y="256" width="900" height="8" fill="url(#headerGrad)"/>
  <text x="480" y="256" text-anchor="middle" font-size="12" font-weight="600" fill="#f1f5f9">业务 &amp; 调度层 (Business &amp; Dispatch Layer) — Spring Boot 3.2.6</text>

  <!-- Row 1 -->
  <rect x="50" y="276" width="140" height="36" rx="4" fill="#fef3c7" stroke="#d97706" stroke-width="1.5"/>
  <text x="120" y="291" text-anchor="middle" font-size="11" font-weight="600" fill="#92400e">订单服务</text>
  <text x="120" y="305" text-anchor="middle" font-size="9" fill="#92400e">OrderService</text>

  <rect x="210" y="276" width="140" height="36" rx="4" fill="#fef3c7" stroke="#d97706" stroke-width="1.5"/>
  <text x="280" y="291" text-anchor="middle" font-size="11" font-weight="600" fill="#92400e">调度引擎 ★</text>
  <text x="280" y="305" text-anchor="middle" font-size="9" fill="#92400e">ConcurrentDispatch</text>

  <rect x="370" y="276" width="140" height="36" rx="4" fill="#fef3c7" stroke="#d97706" stroke-width="1.5"/>
  <text x="440" y="291" text-anchor="middle" font-size="11" font-weight="600" fill="#92400e">评分引擎 ★</text>
  <text x="440" y="305" text-anchor="middle" font-size="9" fill="#92400e">ScoringEngine</text>

  <rect x="530" y="276" width="140" height="36" rx="4" fill="#dbeafe" stroke="#2563eb" stroke-width="1"/>
  <text x="600" y="291" text-anchor="middle" font-size="11" font-weight="600" fill="#1e40af">支付服务</text>
  <text x="600" y="305" text-anchor="middle" font-size="9" fill="#1e40af">PaymentService</text>

  <rect x="690" y="276" width="120" height="36" rx="4" fill="#dbeafe" stroke="#2563eb" stroke-width="1"/>
  <text x="750" y="291" text-anchor="middle" font-size="11" font-weight="600" fill="#1e40af">计费引擎</text>
  <text x="750" y="305" text-anchor="middle" font-size="9" fill="#1e40af">四段阶梯计价</text>

  <rect x="825" y="276" width="90" height="36" rx="4" fill="#dbeafe" stroke="#2563eb" stroke-width="1"/>
  <text x="870" y="291" text-anchor="middle" font-size="11" font-weight="600" fill="#1e40af">用户服务</text>
  <text x="870" y="305" text-anchor="middle" font-size="9" fill="#1e40af">UserService</text>

  <!-- Row 2 -->
  <rect x="50" y="320" width="140" height="36" rx="4" fill="#dcfce7" stroke="#059669" stroke-width="1"/>
  <text x="120" y="335" text-anchor="middle" font-size="11" font-weight="600" fill="#065f46">状态机</text>
  <text x="120" y="349" text-anchor="middle" font-size="9" fill="#065f46">OrderStatus 枚举</text>

  <rect x="210" y="320" width="140" height="36" rx="4" fill="#dcfce7" stroke="#059669" stroke-width="1"/>
  <text x="280" y="335" text-anchor="middle" font-size="11" font-weight="600" fill="#065f46">AI 客服</text>
  <text x="280" y="349" text-anchor="middle" font-size="9" fill="#065f46">DeepSeek SSE 流式</text>

  <rect x="370" y="320" width="140" height="36" rx="4" fill="#dcfce7" stroke="#059669" stroke-width="1"/>
  <text x="440" y="335" text-anchor="middle" font-size="11" font-weight="600" fill="#065f46">风控系统</text>
  <text x="440" y="349" text-anchor="middle" font-size="9" fill="#065f46">3 条检测规则</text>

  <rect x="530" y="320" width="140" height="36" rx="4" fill="#dcfce7" stroke="#059669" stroke-width="1"/>
  <text x="600" y="335" text-anchor="middle" font-size="11" font-weight="600" fill="#065f46">事件溯源</text>
  <text x="600" y="349" text-anchor="middle" font-size="9" fill="#065f46">OrderEvent 12 类事件</text>

  <rect x="690" y="320" width="230" height="36" rx="4" fill="#dcfce7" stroke="#059669" stroke-width="1"/>
  <text x="805" y="335" text-anchor="middle" font-size="11" font-weight="600" fill="#065f46">三层可观测性</text>
  <text x="805" y="349" text-anchor="middle" font-size="9" fill="#065f46">Metrics · Health(S/A/B/C/D) · Anomaly</text>

  <!-- Service -> Data arrows -->
  <line x1="240" y1="368" x2="240" y2="402" stroke="#94a3b8" stroke-width="1.5" marker-end="url(#arrow)"/>
  <line x1="480" y1="368" x2="480" y2="402" stroke="#94a3b8" stroke-width="1.5" marker-end="url(#arrow)"/>
  <line x1="720" y1="368" x2="720" y2="402" stroke="#94a3b8" stroke-width="1.5" marker-end="url(#arrow)"/>

  <!-- ====== DATA LAYER ====== -->
  <rect x="30" y="406" width="900" height="80" rx="8" fill="#ffffff" stroke="#e2e8f0" stroke-width="1.5"/>
  <rect x="30" y="406" width="900" height="26" rx="8" fill="url(#headerGrad)"/>
  <rect x="30" y="424" width="900" height="8" fill="url(#headerGrad)"/>
  <text x="480" y="424" text-anchor="middle" font-size="12" font-weight="600" fill="#f1f5f9">数据层 (Data Layer)</text>

  <rect x="55" y="442" width="180" height="34" rx="4" fill="#f1f5f9" stroke="#cbd5e1" stroke-width="1"/>
  <text x="145" y="457" text-anchor="middle" font-size="12" font-weight="600" fill="#1e293b">MySQL 8.0</text>
  <text x="145" y="471" text-anchor="middle" font-size="9" fill="#64748b">27 张表 · MyBatis-Plus ORM</text>

  <rect x="265" y="442" width="180" height="34" rx="4" fill="#fee2e2" stroke="#dc2626" stroke-width="1"/>
  <text x="355" y="457" text-anchor="middle" font-size="12" font-weight="600" fill="#991b1b">Redis + Redisson</text>
  <text x="355" y="471" text-anchor="middle" font-size="9" fill="#991b1b">分布式锁 · 缓存 · 黑名单</text>

  <rect x="475" y="442" width="180" height="34" rx="4" fill="#f1f5f9" stroke="#cbd5e1" stroke-width="1"/>
  <text x="565" y="457" text-anchor="middle" font-size="12" font-weight="600" fill="#1e293b">MyBatis-Plus 3.5.7</text>
  <text x="565" y="471" text-anchor="middle" font-size="9" fill="#64748b">LambdaQuery · 分页 · 自动填充</text>

  <rect x="685" y="442" width="220" height="34" rx="4" fill="#ede9fe" stroke="#7c3aed" stroke-width="1"/>
  <text x="795" y="457" text-anchor="middle" font-size="12" font-weight="600" fill="#5b21b6">事件溯源表</text>
  <text x="795" y="471" text-anchor="middle" font-size="9" fill="#5b21b6">t_order_event · t_payment_trace</text>

  <!-- Data -> Infra arrows -->
  <line x1="480" y1="486" x2="480" y2="512" stroke="#94a3b8" stroke-width="1.5" marker-end="url(#arrow)"/>

  <!-- ====== INFRASTRUCTURE LAYER ====== -->
  <rect x="130" y="516" width="700" height="54" rx="8" fill="#ffffff" stroke="#e2e8f0" stroke-width="1.5"/>
  <rect x="130" y="516" width="700" height="22" rx="8" fill="#1e293b"/>
  <rect x="130" y="530" width="700" height="8" fill="#1e293b"/>
  <text x="480" y="531" text-anchor="middle" font-size="11" font-weight="600" fill="#f1f5f9">基础设施层 (Infrastructure Layer)</text>

  <rect x="155" y="540" width="120" height="22" rx="3" fill="#f1f5f9" stroke="#cbd5e1" stroke-width="0.5"/>
  <text x="215" y="555" text-anchor="middle" font-size="10" fill="#475569">Docker Compose</text>

  <rect x="295" y="540" width="120" height="22" rx="3" fill="#f1f5f9" stroke="#cbd5e1" stroke-width="0.5"/>
  <text x="355" y="555" text-anchor="middle" font-size="10" fill="#475569">Nginx 反向代理</text>

  <rect x="435" y="540" width="120" height="22" rx="3" fill="#f1f5f9" stroke="#cbd5e1" stroke-width="0.5"/>
  <text x="495" y="555" text-anchor="middle" font-size="10" fill="#475569">GitHub Actions CI</text>

  <rect x="575" y="540" width="120" height="22" rx="3" fill="#f1f5f9" stroke="#cbd5e1" stroke-width="0.5"/>
  <text x="635" y="555" text-anchor="middle" font-size="10" fill="#475569">Knife4j API 文档</text>

  <rect x="710" y="540" width="100" height="22" rx="3" fill="#f1f5f9" stroke="#cbd5e1" stroke-width="0.5"/>
  <text x="760" y="555" text-anchor="middle" font-size="10" fill="#475569">JUnit + Vitest</text>

  <!-- Right side labels -->
  <rect x="860" y="92" width="90" height="22" rx="3" fill="#f8fafc" stroke="#e2e8f0" stroke-width="0.5"/>
  <text x="905" y="107" text-anchor="middle" font-size="9" fill="#64748b">DeepSeek API</text>

  <line x1="860" y1="103" x2="835" y2="310" stroke="#e2e8f0" stroke-width="1" stroke-dasharray="4,3"/>
  <line x1="835" y1="310" x2="370" y2="310" stroke="#e2e8f0" stroke-width="1" stroke-dasharray="4,3" marker-end="url(#arrow)"/>

  <!-- Legend -->
  <rect x="30" y="580" width="900" height="32" rx="4" fill="transparent"/>
  <rect x="50" y="586" width="12" height="12" rx="2" fill="#fef3c7" stroke="#d97706" stroke-width="0.5"/>
  <text x="68" y="596" font-size="10" fill="#64748b">核心业务</text>
  <rect x="140" y="586" width="12" height="12" rx="2" fill="#dbeafe" stroke="#2563eb" stroke-width="0.5"/>
  <text x="158" y="596" font-size="10" fill="#64748b">支撑服务</text>
  <rect x="230" y="586" width="12" height="12" rx="2" fill="#dcfce7" stroke="#059669" stroke-width="0.5"/>
  <text x="248" y="596" font-size="10" fill="#64748b">高级特性</text>
  <rect x="320" y="586" width="12" height="12" rx="2" fill="#fee2e2" stroke="#dc2626" stroke-width="0.5"/>
  <text x="338" y="596" font-size="10" fill="#64748b">缓存/锁</text>
  <rect x="400" y="586" width="12" height="12" rx="2" fill="#ede9fe" stroke="#7c3aed" stroke-width="0.5"/>
  <text x="418" y="596" font-size="10" fill="#64748b">审计追踪</text>
  <text x="530" y="596" font-size="10" fill="#94a3b8">★ 核心调度层亮点</text>
</svg>
