<svg xmlns="http://www.w3.org/2000/svg" viewBox="0 0 880 480" font-family="'Inter','Noto Sans SC',system-ui,sans-serif">
  <rect width="880" height="480" fill="#f8f9fa" rx="10"/>
  <text x="440" y="28" text-anchor="middle" font-size="16" font-weight="600" fill="#1a202c">个人技术栈全景</text>
  <text x="440" y="46" text-anchor="middle" font-size="11" fill="#94a3b8">基于三个项目真实使用技术 · 每个标签都有代码证据</text>

  <!-- Backend -->
  <rect x="20" y="62" width="400" height="130" rx="6" fill="#fff" stroke="#e2e8f0" stroke-width="1"/>
  <rect x="20" y="62" width="400" height="22" rx="6" fill="#d97706"/><rect x="20" y="76" width="400" height="8" fill="#d97706"/>
  <text x="220" y="77" text-anchor="middle" font-size="11" font-weight="600" fill="#fff">🔧 后端开发</text>

  <rect x="35" y="92" width="110" height="26" rx="3" fill="#fef3c7" stroke="#d97706" stroke-width="0.5"/><text x="90" y="109" text-anchor="middle" font-size="11" fill="#92400e">Java 17</text>
  <rect x="155" y="92" width="120" height="26" rx="3" fill="#fef3c7" stroke="#d97706" stroke-width="0.5"/><text x="215" y="109" text-anchor="middle" font-size="11" fill="#92400e">Spring Boot 3</text>
  <rect x="285" y="92" width="120" height="26" rx="3" fill="#fef3c7" stroke="#d97706" stroke-width="0.5"/><text x="345" y="109" text-anchor="middle" font-size="11" fill="#92400e">MyBatis-Plus</text>
  <rect x="35" y="126" width="110" height="26" rx="3" fill="#fef3c7" stroke="#d97706" stroke-width="0.5"/><text x="90" y="143" text-anchor="middle" font-size="11" fill="#92400e">MySQL 8.0</text>
  <rect x="155" y="126" width="120" height="26" rx="3" fill="#fee2e2" stroke="#dc2626" stroke-width="0.5"/><text x="215" y="143" text-anchor="middle" font-size="11" fill="#991b1b">Redis + Redisson</text>
  <rect x="285" y="126" width="120" height="26" rx="3" fill="#fef3c7" stroke="#d97706" stroke-width="0.5"/><text x="345" y="143" text-anchor="middle" font-size="11" fill="#92400e">JWT + Security</text>
  <rect x="35" y="158" width="110" height="26" rx="3" fill="#fef3c7" stroke="#d97706" stroke-width="0.5"/><text x="90" y="175" text-anchor="middle" font-size="11" fill="#92400e">Knife4j</text>
  <rect x="155" y="158" width="120" height="26" rx="3" fill="#fef3c7" stroke="#d97706" stroke-width="0.5"/><text x="215" y="175" text-anchor="middle" font-size="11" fill="#92400e">WebSocket</text>
  <rect x="285" y="158" width="120" height="26" rx="3" fill="#fef3c7" stroke="#d97706" stroke-width="0.5"/><text x="345" y="175" text-anchor="middle" font-size="11" fill="#92400e">Spring AOP</text>

  <!-- Frontend -->
  <rect x="460" y="62" width="400" height="130" rx="6" fill="#fff" stroke="#e2e8f0" stroke-width="1"/>
  <rect x="460" y="62" width="400" height="22" rx="6" fill="#2563eb"/><rect x="460" y="76" width="400" height="8" fill="#2563eb"/>
  <text x="660" y="77" text-anchor="middle" font-size="11" font-weight="600" fill="#fff">🎨 前端开发</text>

  <rect x="475" y="92" width="110" height="26" rx="3" fill="#dbeafe" stroke="#2563eb" stroke-width="0.5"/><text x="530" y="109" text-anchor="middle" font-size="11" fill="#1e40af">Vue 3</text>
  <rect x="595" y="92" width="120" height="26" rx="3" fill="#dbeafe" stroke="#2563eb" stroke-width="0.5"/><text x="655" y="109" text-anchor="middle" font-size="11" fill="#1e40af">React 18</text>
  <rect x="725" y="92" width="120" height="26" rx="3" fill="#dbeafe" stroke="#2563eb" stroke-width="0.5"/><text x="785" y="109" text-anchor="middle" font-size="11" fill="#1e40af">TypeScript strict</text>
  <rect x="475" y="126" width="110" height="26" rx="3" fill="#dbeafe" stroke="#2563eb" stroke-width="0.5"/><text x="530" y="143" text-anchor="middle" font-size="11" fill="#1e40af">Vite 5</text>
  <rect x="595" y="126" width="120" height="26" rx="3" fill="#dbeafe" stroke="#2563eb" stroke-width="0.5"/><text x="655" y="143" text-anchor="middle" font-size="11" fill="#1e40af">Zustand · Pinia</text>
  <rect x="725" y="126" width="120" height="26" rx="3" fill="#dbeafe" stroke="#2563eb" stroke-width="0.5"/><text x="785" y="143" text-anchor="middle" font-size="11" fill="#1e40af">ECharts · Chart.js</text>
  <rect x="475" y="158" width="110" height="26" rx="3" fill="#dbeafe" stroke="#2563eb" stroke-width="0.5"/><text x="530" y="175" text-anchor="middle" font-size="11" fill="#1e40af">Element Plus</text>
  <rect x="595" y="158" width="120" height="26" rx="3" fill="#dbeafe" stroke="#2563eb" stroke-width="0.5"/><text x="655" y="175" text-anchor="middle" font-size="11" fill="#1e40af">CSS 设计令牌</text>
  <rect x="725" y="158" width="120" height="26" rx="3" fill="#dbeafe" stroke="#2563eb" stroke-width="0.5"/><text x="785" y="175" text-anchor="middle" font-size="11" fill="#1e40af">SCSS</text>

  <!-- Mini Program -->
  <rect x="20" y="204" width="270" height="90" rx="6" fill="#fff" stroke="#e2e8f0" stroke-width="1"/>
  <rect x="20" y="204" width="270" height="22" rx="6" fill="#059669"/><rect x="20" y="218" width="270" height="8" fill="#059669"/>
  <text x="155" y="219" text-anchor="middle" font-size="11" font-weight="600" fill="#fff">📱 小程序 &amp; Serverless</text>
  <rect x="35" y="234" width="110" height="24" rx="3" fill="#dcfce7" stroke="#059669" stroke-width="0.5"/><text x="90" y="250" text-anchor="middle" font-size="10" fill="#065f46">Taro 4</text>
  <rect x="155" y="234" width="120" height="24" rx="3" fill="#dcfce7" stroke="#059669" stroke-width="0.5"/><text x="215" y="250" text-anchor="middle" font-size="10" fill="#065f46">微信小程序</text>
  <rect x="35" y="264" width="110" height="24" rx="3" fill="#dcfce7" stroke="#059669" stroke-width="0.5"/><text x="90" y="280" text-anchor="middle" font-size="10" fill="#065f46">CloudBase</text>
  <rect x="155" y="264" width="120" height="24" rx="3" fill="#dcfce7" stroke="#059669" stroke-width="0.5"/><text x="215" y="280" text-anchor="middle" font-size="10" fill="#065f46">26 云函数</text>

  <!-- AI -->
  <rect x="310" y="204" width="250" height="90" rx="6" fill="#fff" stroke="#e2e8f0" stroke-width="1"/>
  <rect x="310" y="204" width="250" height="22" rx="6" fill="#7c3aed"/><rect x="310" y="218" width="250" height="8" fill="#7c3aed"/>
  <text x="435" y="219" text-anchor="middle" font-size="11" font-weight="600" fill="#fff">🤖 AI 工程化</text>
  <rect x="325" y="234" width="110" height="24" rx="3" fill="#ede9fe" stroke="#7c3aed" stroke-width="0.5"/><text x="380" y="250" text-anchor="middle" font-size="10" fill="#5b21b6">DeepSeek API</text>
  <rect x="445" y="234" width="100" height="24" rx="3" fill="#ede9fe" stroke="#7c3aed" stroke-width="0.5"/><text x="495" y="250" text-anchor="middle" font-size="10" fill="#5b21b6">Prompt Eng.</text>
  <rect x="325" y="264" width="110" height="24" rx="3" fill="#ede9fe" stroke="#7c3aed" stroke-width="0.5"/><text x="380" y="280" text-anchor="middle" font-size="10" fill="#5b21b6">SSE 流式响应</text>
  <rect x="445" y="264" width="100" height="24" rx="3" fill="#ede9fe" stroke="#7c3aed" stroke-width="0.5"/><text x="495" y="280" text-anchor="middle" font-size="10" fill="#5b21b6">Claude Code</text>

  <!-- DevOps -->
  <rect x="580" y="204" width="280" height="90" rx="6" fill="#fff" stroke="#e2e8f0" stroke-width="1"/>
  <rect x="580" y="204" width="280" height="22" rx="6" fill="#dc2626"/><rect x="580" y="218" width="280" height="8" fill="#dc2626"/>
  <text x="720" y="219" text-anchor="middle" font-size="11" font-weight="600" fill="#fff">🛠️ DevOps &amp; 工程</text>
  <rect x="595" y="234" width="120" height="24" rx="3" fill="#fee2e2" stroke="#dc2626" stroke-width="0.5"/><text x="655" y="250" text-anchor="middle" font-size="10" fill="#991b1b">Docker Compose</text>
  <rect x="725" y="234" width="120" height="24" rx="3" fill="#fee2e2" stroke="#dc2626" stroke-width="0.5"/><text x="785" y="250" text-anchor="middle" font-size="10" fill="#991b1b">GitHub Actions</text>
  <rect x="595" y="264" width="120" height="24" rx="3" fill="#fee2e2" stroke="#dc2626" stroke-width="0.5"/><text x="655" y="280" text-anchor="middle" font-size="10" fill="#991b1b">Nginx</text>
  <rect x="725" y="264" width="120" height="24" rx="3" fill="#fee2e2" stroke="#dc2626" stroke-width="0.5"/><text x="785" y="280" text-anchor="middle" font-size="10" fill="#991b1b">Vitest · Playwright</text>

  <!-- Software Engineering -->
  <rect x="20" y="306" width="840" height="62" rx="6" fill="#fff" stroke="#e2e8f0" stroke-width="1"/>
  <rect x="20" y="306" width="840" height="22" rx="6" fill="#64748b"/><rect x="20" y="320" width="840" height="8" fill="#64748b"/>
  <text x="440" y="321" text-anchor="middle" font-size="11" font-weight="600" fill="#fff">📋 软件工程实践 (从三个项目中体现)</text>

  <rect x="35" y="336" width="130" height="24" rx="3" fill="#f1f5f9" stroke="#cbd5e1" stroke-width="0.5"/><text x="100" y="352" text-anchor="middle" font-size="10" fill="#475569">形式化状态机</text>
  <rect x="178" y="336" width="110" height="24" rx="3" fill="#f1f5f9" stroke="#cbd5e1" stroke-width="0.5"/><text x="233" y="352" text-anchor="middle" font-size="10" fill="#475569">事件溯源 (CQRS)</text>
  <rect x="301" y="336" width="110" height="24" rx="3" fill="#f1f5f9" stroke="#cbd5e1" stroke-width="0.5"/><text x="356" y="352" text-anchor="middle" font-size="10" fill="#475569">二阶分布式锁</text>
  <rect x="424" y="336" width="110" height="24" rx="3" fill="#f1f5f9" stroke="#cbd5e1" stroke-width="0.5"/><text x="479" y="352" text-anchor="middle" font-size="10" fill="#475569">动态评分算法</text>
  <rect x="547" y="336" width="110" height="24" rx="3" fill="#f1f5f9" stroke="#cbd5e1" stroke-width="0.5"/><text x="602" y="352" text-anchor="middle" font-size="10" fill="#475569">SM-2 间隔复习</text>
  <rect x="670" y="336" width="110" height="24" rx="3" fill="#f1f5f9" stroke="#cbd5e1" stroke-width="0.5"/><text x="725" y="352" text-anchor="middle" font-size="10" fill="#475569">安全加固 OWASP</text>
  <rect x="793" y="336" width="55" height="24" rx="3" fill="#f1f5f9" stroke="#cbd5e1" stroke-width="0.5"/><text x="820" y="352" text-anchor="middle" font-size="10" fill="#475569">TDD</text>

  <!-- Project mapping -->
  <rect x="20" y="380" width="840" height="52" rx="6" fill="#f8f9fa"/>
  <text x="440" y="398" text-anchor="middle" font-size="11" font-weight="600" fill="#1e293b">技术栈 → 项目映射</text>
  <text x="180" y="420" text-anchor="middle" font-size="10" fill="#64748b">江南出行: Java · Spring · Redis · Vue · Docker · 分布式锁 · 状态机</text>
  <text x="500" y="420" text-anchor="middle" font-size="10" fill="#64748b">两地书: React · TS · Taro · CloudBase · DeepSeek · Serverless</text>
  <text x="140" y="420" text-anchor="middle" font-size="10" fill="#94a3b8">题库: Vanilla JS · CSS变量 · Chart.js · SM-2 · localStorage</text>

  <!-- Legend -->
  <rect x="20" y="442" width="840" height="30" rx="4" fill="transparent"/>
  <rect x="35" y="450" width="10" height="10" rx="2" fill="#fef3c7" stroke="#d97706" stroke-width="0.5"/><text x="50" y="459" font-size="9" fill="#64748b">后端</text>
  <rect x="95" y="450" width="10" height="10" rx="2" fill="#dbeafe" stroke="#2563eb" stroke-width="0.5"/><text x="110" y="459" font-size="9" fill="#64748b">前端</text>
  <rect x="155" y="450" width="10" height="10" rx="2" fill="#dcfce7" stroke="#059669" stroke-width="0.5"/><text x="170" y="459" font-size="9" fill="#64748b">小程序</text>
  <rect x="220" y="450" width="10" height="10" rx="2" fill="#ede9fe" stroke="#7c3aed" stroke-width="0.5"/><text x="235" y="459" font-size="9" fill="#64748b">AI</text>
  <rect x="265" y="450" width="10" height="10" rx="2" fill="#fee2e2" stroke="#dc2626" stroke-width="0.5"/><text x="280" y="459" font-size="9" fill="#64748b">DevOps</text>
  <rect x="335" y="450" width="10" height="10" rx="2" fill="#f1f5f9" stroke="#cbd5e1" stroke-width="0.5"/><text x="350" y="459" font-size="9" fill="#64748b">工程实践</text>
  <text x="520" y="459" font-size="9" fill="#94a3b8">三个项目覆盖从 Vanilla JS 到 Spring Boot 到 Serverless 的完整技术栈</text>
</svg>
